<svg id="Capa_1" enable-background="new 0 0 512.018 512.018" height="512" viewBox="0 0 512.018 512.018" width="512" xmlns="http://www.w3.org/2000/svg"><path d="m116.133.001-11.538-.001c-.001 0 .001 0-.001 0-24.752 0-44.94 20.139-45 44.89l-.359 361.229c12.82-9.909 28.875-15.825 46.295-15.825h10.604v-390.293z"/><path d="m437.783 512.018h-332.253c-25.288 0-45.862-20.574-45.862-45.862s20.574-45.862 45.862-45.862h332.254c8.284 0 15 6.716 15 15s-6.716 15-15 15h-332.254c-8.746 0-15.862 7.116-15.862 15.862 0 8.747 7.116 15.862 15.862 15.862h332.254c8.284 0 15 6.716 15 15s-6.716 15-15.001 15z"/><path d="m353.21 182.899c-12.078-10.246-30.593-22.46-50.204-22.46-26.525 0-52.415 22.56-66.11 37.895 3.954 4.426 9.383 10.026 15.906 15.561 12.078 10.247 30.593 22.46 50.204 22.46s38.126-12.214 50.204-22.46c6.491-5.506 11.898-11.08 15.849-15.498-3.95-4.418-9.358-9.991-15.849-15.498zm-39.592 26.109c-2.8 2.79-6.67 4.39-10.609 4.39-3.95 0-7.82-1.6-10.61-4.39-2.79-2.8-4.39-6.66-4.39-10.61s1.6-7.82 4.39-10.61 6.66-4.39 10.61-4.39 7.81 1.6 10.609 4.39c2.79 2.79 4.391 6.66 4.391 10.61s-1.601 7.81-4.391 10.61z"/><path d="m312.746.011-166.613-.009v390.292h167.281l139.37-139.37v-110.876zm87.899 207.172c-1.746 2.416-43.386 59.172-97.639 59.172s-95.893-56.756-97.639-59.172c-3.79-5.245-3.79-12.328 0-17.572 1.746-2.416 43.386-59.171 97.639-59.171s95.892 56.755 97.639 59.171c3.79 5.244 3.79 12.327 0 17.572z"/><path d="m437.783 390.294c5.212 0 10.268.893 15 2.557v-99.5l-96.944 96.943z"/><path d="m452.783 15.018c0-8.284-6.715-15-14.999-15l-82.61-.004 97.609 97.608z"/></svg>