<svg height="512pt" viewBox="0 -56 512 512" width="512pt" xmlns="http://www.w3.org/2000/svg"><path d="m107 130h-92c-8.285156 0-15 6.714844-15 15v240c0 8.285156 6.714844 15 15 15h92c8.285156 0 15-6.714844 15-15v-240c0-8.285156-6.714844-15-15-15zm0 0"/><path d="m512 235c0-17.488281-10.035156-32.671875-24.644531-40.113281 2.96875-6 4.644531-12.75 4.644531-19.886719 0-24.8125-20.1875-45-45-45h-145v-75c0-30.328125-24.671875-55-55-55h-30c-8.285156 0-15 6.714844-15 15v53.324219c0 13.195312-5.136719 25.601562-14.46875 34.929687l-31.136719 31.140625c-2.816406 2.8125-4.394531 6.628907-4.394531 10.605469v170c0 46.867188 38.132812 85 85 85h180c24.8125 0 45-20.1875 45-45 0-7.136719-1.675781-13.886719-4.644531-19.886719 14.609375-7.441406 24.644531-22.625 24.644531-40.113281 0-5.855469-1.136719-11.449219-3.179688-16.585938 19.09375-5.203124 33.179688-22.691406 33.179688-43.414062zm0 0"/></svg>